<svg xmlns="http://www.w3.org/2000/svg" width="192" height="29.997" viewBox="0 0 192 29.997">
  <g id="logo" transform="translate(-485.501 -2009.252)">
    <g id="Group_1" data-name="Group 1" transform="translate(485.501 2009.252)">
      <path id="Path_1" data-name="Path 1" d="M508.046,2025.705s-.107-11.417-9.155-15.322c0,0,3.958,6.813,3.689,8.886,0,0-3.339-9.964-9.479-10.017,0,0,6.194,6.84,5.439,10.933,0,0-4.335-10.61-10.139-9.977a23.307,23.307,0,0,1,5.9,10.139,7.4,7.4,0,0,0-8.726,5.852,2.037,2.037,0,0,0-.027.954,1.236,1.236,0,0,0,.652.9,1.1,1.1,0,0,0,.831.039,1.738,1.738,0,0,0,1.077-1.171,6.5,6.5,0,0,1,3.232-3.366,4.489,4.489,0,0,1,2.961-.1,5.089,5.089,0,0,1,3.838,5.18,5.175,5.175,0,0,1-3.416,4.687,4.809,4.809,0,0,1-3.454,0,6.438,6.438,0,0,1-2.961-2.427,2.8,2.8,0,0,0-.534-.6,1.124,1.124,0,0,0-1.532-.13,1.38,1.38,0,0,0-.369,1.459c.6,1.835,2.991,7.047,10.9,7.258C496.771,2038.874,507.858,2039.6,508.046,2025.705Z" transform="translate(-485.501 -2009.252)" fill="#fb9426"/>
      <path id="Path_2" data-name="Path 2" d="M505.4,2068.307a2.388,2.388,0,0,1,.64.089,1.127,1.127,0,0,0-.687,1.038h0a1.127,1.127,0,0,0,2.221.273,2.381,2.381,0,0,1,.216.99h0a2.39,2.39,0,0,1-4.78,0h0A2.39,2.39,0,0,1,505.4,2068.307Z" transform="translate(-498.005 -2051.425)" fill="#040e29"/>
    </g>
    <path id="Path_3" data-name="Path 3" d="M590.161,2051.363a8.552,8.552,0,0,1-6.329-2.281,9.165,9.165,0,0,1-2.487-6.26,12.294,12.294,0,0,1,.377-3.551,8.536,8.536,0,0,1,1.578-3.174,6.362,6.362,0,0,1,3.242-2.264,14.505,14.505,0,0,1,3.928-.514l4.082-.035v-6.552h4.768v24.63Zm4.391-3.876V2037.2a4.43,4.43,0,0,1-.549.034h-1.887q-.617,0-1.218.017t-1.218.086a2.46,2.46,0,0,0-1.046.309,4.7,4.7,0,0,0-.909.652,3.989,3.989,0,0,0-1.012,1.663,8.467,8.467,0,0,0-.36,1.9v.995q.1,3.636,2.075,4.185a16.952,16.952,0,0,0,4.717.514c.228-.023.463-.034.7-.034h.7Z" transform="translate(-68.438 -12.484)" fill="#040e29"/>
    <path id="Path_4" data-name="Path 4" d="M663.236,2049.653a15.455,15.455,0,0,1,3.036.36,5.321,5.321,0,0,1,2.624,1.493,5.192,5.192,0,0,1,1.39,2.264,9.2,9.2,0,0,1,.394,2.676v11.287H657.85a5.645,5.645,0,0,1-4.254-1.527,5.421,5.421,0,0,1-1.338-4.237q.24-3.259,2.3-4.219a11.52,11.52,0,0,1,4.905-.961l6.278-.034q.1-2.229-1.149-2.778a7.935,7.935,0,0,0-3.173-.549l-7.959-.034v-3.739Zm-3.43,14.442h5.969v-3.74h-5.625a.3.3,0,0,1-.137.035h-.137a5.323,5.323,0,0,0-1.784.36,1.5,1.5,0,0,0-.858,1.527q-.069,1.337.738,1.578a7.265,7.265,0,0,0,1.835.274Z" transform="translate(-119.473 -28.852)" fill="#040e29"/>
    <path id="Path_5" data-name="Path 5" d="M732.861,2049.653q3.876.034,4.494,1.784a14.018,14.018,0,0,1,.583,4.7v1.132l-4.562-.035v-.755q0-2.5-.395-2.916t-2.865-.411H729.6v14.579h-4.768v-18.078Z" transform="translate(-171.465 -28.852)" fill="#040e29"/>
    <path id="Path_6" data-name="Path 6" d="M783.555,2026.733v15.231l7.684-8.679h6.038l-8.37,8.85,8.37,9.228h-6.415l-7.306-8.782v8.782h-4.769v-24.63Z" transform="translate(-210.138 -12.484)" fill="#040e29"/>
    <path id="Path_7" data-name="Path 7" d="M851.465,2051.363v-24.63h4.974v24.63Z" transform="translate(-262.15 -12.484)" fill="#fb9426"/>
    <path id="Path_8" data-name="Path 8" d="M1033.923,2026.733v15.231l7.684-8.679h6.037l-8.37,8.85,8.37,9.228h-6.415l-7.307-8.782v8.782h-4.768v-24.63Z" transform="translate(-389.689 -12.484)" fill="#fb9426"/>
    <path id="Path_9" data-name="Path 9" d="M1111.122,2063.958a.3.3,0,0,0,.137.034h.137a3.99,3.99,0,0,0,1.578-.378,1.4,1.4,0,0,0,.72-1.406,1.35,1.35,0,0,0-.686-1.337,4.069,4.069,0,0,0-1.475-.412h-.412l-4.116-.034a10.108,10.108,0,0,1-4.545-.79q-1.664-.823-1.7-4.185-.035-3.156,1.715-4.459a7.628,7.628,0,0,1,4.665-1.3l10.257-.034v3.773h-8.439a.6.6,0,0,1-.188.034h-1.149a3.515,3.515,0,0,0-1.184.274,1.253,1.253,0,0,0-.737.892q-.275,1.2.48,1.646a3.367,3.367,0,0,0,1.749.446l4.322-.034a7.67,7.67,0,0,1,4.254,1.184,4.636,4.636,0,0,1,1.818,3.962v.1a6.537,6.537,0,0,1-1.252,4,4.257,4.257,0,0,1-3.688,1.8h-12.315v-3.773Z" transform="translate(-440.826 -28.852)" fill="#fb9426"/>
    <g id="Group_2" data-name="Group 2" transform="translate(596.448 2019.77)">
      <path id="Path_10" data-name="Path 10" d="M881.922,2057.2h0a4.17,4.17,0,0,1-.473-2.649,4.729,4.729,0,0,1,1.651-2.974q.242-.195.533-.388a3.105,3.105,0,0,1,.606-.315,3.968,3.968,0,0,1,2.875-.085,7.324,7.324,0,0,1,.886.377.78.78,0,0,0,.9-.143l2.463-2.464a.785.785,0,0,0-.157-1.231q-.456-.268-.944-.494a8.2,8.2,0,0,0-7.192.085,11.527,11.527,0,0,0-5.336,5.337,8.2,8.2,0,0,0-.085,7.192q.222.479.485.929a.8.8,0,0,0,1.251.16l.052-.052,2.344-2.344A.8.8,0,0,0,881.922,2057.2Z" transform="translate(-876.865 -2046.045)" fill="#fb9426"/>
      <path id="Path_11" data-name="Path 11" d="M899.1,2061.874a8.1,8.1,0,0,1,.7,1.067,4.166,4.166,0,0,1,.412,3.13,4.575,4.575,0,0,1-1.746,2.619,3.225,3.225,0,0,1-.376.231,4.494,4.494,0,0,1-.449.206l.024.024a3.966,3.966,0,0,1-3.008.17,7.053,7.053,0,0,1-2.12-1.149.794.794,0,0,0-1.056.053l-2.151,2.15-.257.256a.787.787,0,0,0,.044,1.159,10.753,10.753,0,0,0,2.374,1.5,8.293,8.293,0,0,0,3.626.788,8.165,8.165,0,0,0,3.542-.873,11.659,11.659,0,0,0,3.1-2.231,11.814,11.814,0,0,0,2.244-3.117,7.955,7.955,0,0,0,.861-3.577l.024.024a8.287,8.287,0,0,0-.788-3.626,10.759,10.759,0,0,0-1.5-2.379.781.781,0,0,0-1.15-.043l-2.425,2.425a.781.781,0,0,0-.056,1.044C899.023,2061.771,899.064,2061.822,899.1,2061.874Z" transform="translate(-885.423 -2054.596)" fill="#fb9426"/>
    </g>
    <g id="Group_3" data-name="Group 3" transform="translate(618.033 2019.77)">
      <path id="Path_12" data-name="Path 12" d="M958.062,2057.2h0a4.17,4.17,0,0,1-.473-2.649,4.729,4.729,0,0,1,1.651-2.974q.243-.195.533-.388a3.114,3.114,0,0,1,.606-.315,3.968,3.968,0,0,1,2.875-.085,7.342,7.342,0,0,1,.887.377.779.779,0,0,0,.9-.143l2.463-2.464a.785.785,0,0,0-.158-1.231q-.456-.268-.944-.494a8.2,8.2,0,0,0-7.192.085,11.526,11.526,0,0,0-5.337,5.337,8.2,8.2,0,0,0-.085,7.192q.222.479.485.929a.8.8,0,0,0,1.251.16l.052-.052,2.344-2.344A.8.8,0,0,0,958.062,2057.2Z" transform="translate(-953.005 -2046.045)" fill="#fb9426"/>
      <path id="Path_13" data-name="Path 13" d="M975.244,2061.874a8.083,8.083,0,0,1,.7,1.067,4.167,4.167,0,0,1,.412,3.13,4.576,4.576,0,0,1-1.747,2.619,3.225,3.225,0,0,1-.376.231,4.461,4.461,0,0,1-.449.206l.024.024a3.966,3.966,0,0,1-3.008.17,7.054,7.054,0,0,1-2.121-1.149.794.794,0,0,0-1.056.053l-2.151,2.15-.256.256a.787.787,0,0,0,.044,1.159,10.748,10.748,0,0,0,2.374,1.5,8.29,8.29,0,0,0,3.626.788,8.165,8.165,0,0,0,3.542-.873,11.664,11.664,0,0,0,3.105-2.231,11.822,11.822,0,0,0,2.244-3.117,7.956,7.956,0,0,0,.861-3.577l.024.024a8.293,8.293,0,0,0-.788-3.626,10.754,10.754,0,0,0-1.5-2.379.781.781,0,0,0-1.15-.043l-2.425,2.425a.781.781,0,0,0-.056,1.044C975.163,2061.771,975.2,2061.822,975.244,2061.874Z" transform="translate(-961.563 -2054.596)" fill="#fb9426"/>
    </g>
  </g>
</svg>
