<svg id="close" xmlns="http://www.w3.org/2000/svg" width="11.632" height="11.632" viewBox="0 0 11.632 11.632">
  <path id="Path_496" data-name="Path 496" d="M.637,11.632A.6.6,0,0,1,.214,10.61L10.649.175a.6.6,0,1,1,.846.846L1.061,11.456a.6.6,0,0,1-.424.176Zm0,0" transform="translate(-0.039 0.001)" fill="#fff"/>
  <path id="Path_497" data-name="Path 497" d="M11.073,11.632a.594.594,0,0,1-.423-.176L.214,1.021A.6.6,0,0,1,1.061.175L11.5,10.61a.6.6,0,0,1-.423,1.022Zm0,0" transform="translate(-0.039 0.001)" fill="#fff"/>
</svg>
