<svg id="remove" xmlns="http://www.w3.org/2000/svg" width="5.896" height="5.896" viewBox="0 0 5.896 5.896">
  <path id="Path_496" data-name="Path 496" d="M.342,5.9a.3.3,0,0,1-.214-.518L5.417.088a.3.3,0,0,1,.429.429L.557,5.807A.3.3,0,0,1,.342,5.9Zm0,0" transform="translate(-0.039 0.001)" fill="#fff"/>
  <path id="Path_497" data-name="Path 497" d="M5.632,5.9a.3.3,0,0,1-.214-.089L.128.517A.3.3,0,0,1,.557.088L5.846,5.378a.3.3,0,0,1-.214.518Zm0,0" transform="translate(-0.039 0.001)" fill="#fff"/>
</svg>
