<svg xmlns="http://www.w3.org/2000/svg" width="50" height="50" viewBox="0 0 50 50">
  <g id="icon6" transform="translate(-30 -550)">
    <circle id="bg" cx="25" cy="25" r="25" transform="translate(30 550)" fill="#666" opacity="0.2"/>
    <path id="icon" d="M20,14.6V3.8A1.805,1.805,0,0,0,18.2,2H7.4A1.805,1.805,0,0,0,5.6,3.8V14.6a1.805,1.805,0,0,0,1.8,1.8H18.2A1.805,1.805,0,0,0,20,14.6ZM10.1,11l1.827,2.439L14.6,10.1l3.6,4.5H7.4ZM2,5.6V18.2A1.805,1.805,0,0,0,3.8,20H16.4V18.2H3.8V5.6Z" transform="translate(44 564)" fill="#666"/>
  </g>
</svg>
