<svg xmlns="http://www.w3.org/2000/svg" width="50" height="50" viewBox="0 0 50 50">
  <g id="icon4" transform="translate(-30 -390)">
    <circle id="bg" cx="25" cy="25" r="25" transform="translate(30 390)" fill="#0245f9" opacity="0.2"/>
    <path id="icon" d="M14.121,18l-.3-1.578a3.639,3.639,0,0,1-1.089-.667l-1.462.519-1.008-1.832,1.15-1.07a4.712,4.712,0,0,1-.061-.667,4.738,4.738,0,0,1,.061-.667l-1.15-1.069,1.008-1.832,1.462.518a3.658,3.658,0,0,1,1.089-.667l.3-1.577h2.017l.3,1.577a3.636,3.636,0,0,1,1.089.667l1.462-.518L20,10.969l-1.149,1.069a4.877,4.877,0,0,1,.06.667,4.85,4.85,0,0,1-.06.667L20,14.443l-1.008,1.832-1.462-.519a3.616,3.616,0,0,1-1.089.667L16.138,18Zm-1.009-5.295a2.02,2.02,0,1,0,2.018-2.117A2.076,2.076,0,0,0,13.111,12.705ZM0,16.941V14.135a3.135,3.135,0,0,1,1.4-2.679A12.526,12.526,0,0,1,8.069,9.529c.231,0,.454.01.675.021a7.809,7.809,0,0,0-.675,3.155A7.628,7.628,0,0,0,9.34,16.941ZM4.034,4.235A4.139,4.139,0,0,1,8.069,0,4.138,4.138,0,0,1,12.1,4.235,4.139,4.139,0,0,1,8.069,8.471,4.139,4.139,0,0,1,4.034,4.235Z" transform="translate(45 406)" fill="#0245f9"/>
  </g>
</svg>
