<svg xmlns="http://www.w3.org/2000/svg" width="50" height="50" viewBox="0 0 50 50">
  <g id="icon3" transform="translate(-30 -310)">
    <circle id="bg" cx="25" cy="25" r="25" transform="translate(30 310)" fill="#ff93f4" opacity="0.2"/>
    <path id="icon" d="M1,18v3H3.455A2.765,2.765,0,0,0,1,18Zm0-4v2c2.258,0,4.091,2.24,4.091,5H6.727C6.727,17.13,4.166,14,1,14ZM15.727,7H4.273V8.63A12.1,12.1,0,0,1,11.121,17h4.606ZM1,10v2c4.066,0,7.364,4.03,7.364,9H10C10,14.92,5.966,10,1,10ZM17.364,3H2.636A1.851,1.851,0,0,0,1,5V8H2.636V5H17.364V19H11.636v2h5.727A1.851,1.851,0,0,0,19,19V5A1.851,1.851,0,0,0,17.364,3Z" transform="translate(45 323)" fill="#ff93f4"/>
  </g>
</svg>
