<svg xmlns="http://www.w3.org/2000/svg" width="18" height="16" viewBox="0 0 18 16">
  <path id="icon" d="M12.709,16l-.273-1.4a3.282,3.282,0,0,1-.98-.593l-1.316.462-.908-1.628,1.035-.951a4.138,4.138,0,0,1-.055-.593,4.161,4.161,0,0,1,.055-.593L9.232,9.75l.908-1.628,1.316.461a3.3,3.3,0,0,1,.98-.593l.273-1.4h1.815l.272,1.4a3.28,3.28,0,0,1,.98.593l1.316-.461L18,9.75l-1.034.95a4.283,4.283,0,0,1,.054.593,4.259,4.259,0,0,1-.054.593L18,12.838l-.908,1.628L15.776,14a3.262,3.262,0,0,1-.98.593L14.524,16ZM11.8,11.294a1.817,1.817,0,1,0,1.816-1.882A1.856,1.856,0,0,0,11.8,11.294ZM0,15.059V12.564a2.777,2.777,0,0,1,1.261-2.381,11.377,11.377,0,0,1,6-1.713c.208,0,.408.009.608.019a6.868,6.868,0,0,0-.608,2.8,6.721,6.721,0,0,0,1.144,3.765ZM3.631,3.764A3.7,3.7,0,0,1,7.262,0a3.7,3.7,0,0,1,3.631,3.764A3.7,3.7,0,0,1,7.262,7.529,3.7,3.7,0,0,1,3.631,3.764Z" fill="#fb9426"/>
</svg>
