<svg xmlns="http://www.w3.org/2000/svg" width="16" height="16" viewBox="0 0 16 16">
  <path id="Path_30" data-name="Path 30" d="M16.779,11.183a5.736,5.736,0,0,0,.051-.783,4.685,4.685,0,0,0-.06-.783L18.51,8.3a.4.4,0,0,0,.1-.508L16.967,5.025a.424.424,0,0,0-.505-.183l-2.048.8a6.1,6.1,0,0,0-1.388-.783l-.308-2.117a.411.411,0,0,0-.411-.342H9.017a.4.4,0,0,0-.4.342L8.306,4.858a6.229,6.229,0,0,0-1.388.783l-2.048-.8a.414.414,0,0,0-.505.183L2.729,7.792a.372.372,0,0,0,.1.508L4.571,9.617a4.512,4.512,0,0,0-.017,1.567L2.814,12.5a.4.4,0,0,0-.1.508l1.645,2.767a.424.424,0,0,0,.505.183l2.048-.8a6.1,6.1,0,0,0,1.388.783l.308,2.117a.418.418,0,0,0,.411.342h3.29a.4.4,0,0,0,.4-.342l.308-2.117a5.918,5.918,0,0,0,1.388-.783l2.048.8a.414.414,0,0,0,.505-.183L18.6,13.008a.379.379,0,0,0-.1-.508ZM10.662,13.4a3,3,0,1,1,3.084-3A3.052,3.052,0,0,1,10.662,13.4Z" transform="translate(-2.662 -2.4)" fill="#fb9426"/>
</svg>
