<svg xmlns="http://www.w3.org/2000/svg" width="16" height="16" viewBox="0 0 16 16">
  <g id="icon" transform="translate(-2 -2)">
    <path id="Path_24" data-name="Path 24" d="M10,2a8,8,0,0,0,0,16,2,2,0,0,0,2-2,2.035,2.035,0,0,0-.512-1.336.422.422,0,0,1-.1-.264.4.4,0,0,1,.4-.4H13.2A4.8,4.8,0,0,0,18,9.2C18,5.232,14.408,2,10,2Zm4.4,8.8a1.2,1.2,0,1,1,1.2-1.2A1.2,1.2,0,0,1,14.4,10.8ZM12,7.6a1.2,1.2,0,1,1,1.2-1.2A1.2,1.2,0,0,1,12,7.6Zm-7.6,2a1.2,1.2,0,1,1,1.2,1.2A1.2,1.2,0,0,1,4.4,9.6ZM9.2,6.4A1.2,1.2,0,1,1,8,5.2,1.2,1.2,0,0,1,9.2,6.4Z" fill="#fb9426"/>
  </g>
</svg>
