<svg xmlns="http://www.w3.org/2000/svg" width="16" height="16" viewBox="0 0 16 16">
  <path id="icon" d="M1,16.333V19H3.182A2.458,2.458,0,0,0,1,16.333Zm0-3.556v1.778c2.007,0,3.636,1.991,3.636,4.444H6.091C6.091,15.56,3.815,12.778,1,12.778ZM14.091,6.556H3.909V8A10.755,10.755,0,0,1,10,15.444h4.095ZM1,9.222V11c3.615,0,6.545,3.582,6.545,8H9C9,13.6,5.415,9.222,1,9.222ZM15.545,3H2.455A1.646,1.646,0,0,0,1,4.778V7.444H2.455V4.778H15.545V17.222H10.455V19h5.091A1.646,1.646,0,0,0,17,17.222V4.778A1.646,1.646,0,0,0,15.545,3Z" transform="translate(-1 -3)" fill="#fb9426"/>
</svg>
